<svg width="71" height="101" viewBox="0 0 71 101" fill="none" xmlns="http://www.w3.org/2000/svg">
<g clip-path="url(#clip0_0_112)">
<path d="M70.6687 95.5531C70.6687 98.172 68.5548 100.3 65.9429 100.3L4.83063 100.371C2.75163 100.371 0.987091 99.0304 0.349413 97.1647C0.183442 96.683 0.0960885 96.175 0.0960885 95.6407L0 7.27002C0 4.65105 2.11395 2.52259 4.72581 2.52259L60.8415 2.46127L65.8381 2.45251C68.45 2.45251 70.5726 4.57222 70.5726 7.19119L70.6687 95.5531Z" fill="url(#paint0_linear_0_112)"/>
<path d="M64.3356 95.0451L6.42914 95.1064C5.02275 95.1064 3.88716 93.9677 3.88716 92.5575L3.7998 10.3182C3.7998 8.90801 4.9354 7.76932 6.34178 7.76932L64.2395 7.70801C65.6459 7.70801 66.7815 8.84669 66.7815 10.2569L66.8688 92.4962C66.8775 93.8976 65.742 95.0451 64.3356 95.0451Z" fill="#E7E7E7"/>
<path d="M56.203 14.4875L13.9677 14.5401C12.5701 14.5401 11.4257 13.4014 11.4257 11.9999L11.417 4.94011C11.417 3.53865 12.5526 2.39121 13.9502 2.39121L56.1942 2.34741C57.5919 2.34741 58.7362 3.4861 58.7362 4.88755L58.745 11.9474C58.7362 13.3488 57.6006 14.4875 56.203 14.4875ZM13.9502 3.68756C13.2689 3.68756 12.7098 4.24814 12.7098 4.93135L12.7186 11.9912C12.7186 12.6744 13.2776 13.235 13.959 13.235L56.203 13.1912C56.8843 13.1912 57.4434 12.6306 57.4434 11.9474L57.4347 4.88755C57.4347 4.20434 56.8756 3.64376 56.1942 3.64376L13.9502 3.68756Z" fill="url(#paint1_linear_0_112)"/>
<path d="M55.0062 5.40437L15.5662 5.44816C15.1294 5.44816 14.78 5.0978 14.78 4.65985V0.832115C14.78 0.39416 15.1294 0.0437955 15.5662 0.0437955L54.9975 0C55.4342 0 55.7836 0.350364 55.7836 0.78832V4.61605C55.7924 5.05401 55.443 5.40437 55.0062 5.40437Z" fill="url(#paint2_linear_0_112)"/>
<path d="M15.6013 5.44814L54.9714 5.40435C55.4257 5.40435 55.7925 5.03646 55.7925 4.58099V2.70654L14.7715 2.75034V4.62479C14.7715 5.08026 15.1471 5.44814 15.6013 5.44814Z" fill="#58D6F4"/>
<path d="M29.4379 85.7954L26.0312 65.124L23.2708 74.1196L15.3741 74.1283C14.8936 74.1283 14.5093 73.7429 14.5093 73.2612C14.5093 72.7794 14.8936 72.394 15.3741 72.394L22.0042 72.3853L26.5553 57.5736L29.9621 78.2977L34.3821 64.0641L36.7319 70.8086L42.0255 57.9415L47.1706 78.3502L49.1099 71.8597L54.7878 71.851C55.2683 71.851 55.6526 72.2364 55.6526 72.7181C55.6526 73.1999 55.2683 73.5853 54.7878 73.5853L50.394 73.594L47.0309 84.8495L41.6324 63.4422L36.5922 75.6787L34.4695 69.5911L29.4379 85.7954Z" fill="#58D6F4"/>
<path d="M23.5854 45.9415L12.4828 45.9503C10.692 45.9503 9.2245 44.4875 9.2245 42.6919L9.20703 27.127C9.20703 25.3314 10.6658 23.8598 12.4566 23.8598L23.5592 23.8511C25.3499 23.8511 26.8174 25.3138 26.8174 27.1095L26.8349 42.6744C26.8349 44.47 25.3761 45.9328 23.5854 45.9415ZM12.4478 24.8058C11.1725 24.8058 10.1417 25.8482 10.1417 27.127L10.1592 42.6919C10.1592 43.9707 11.1987 45.0043 12.474 45.0043L23.5766 44.9956C24.852 44.9956 25.8828 43.9532 25.8828 42.6744L25.8653 27.1095C25.8653 25.8306 24.8258 24.7971 23.5504 24.7971L12.4478 24.8058Z" fill="url(#paint3_linear_0_112)"/>
<path d="M18.021 42.9546C23.2709 42.9459 24.9044 39.9065 24.9044 39.9065C24.6686 39.6087 24.3716 39.3459 23.9697 39.0831C22.5895 38.1809 21.4802 37.7955 21.0172 37.4101C20.5455 37.0335 20.2834 36.4817 20.2834 36.4817L19.9952 36.6568C19.9952 36.6568 19.8205 36.0525 19.9165 35.1328C19.9165 35.1328 20.3271 35.0277 20.6328 33.635C21.122 33.7313 21.6985 32.4875 21.4278 32.032C21.253 31.7342 21.0434 31.7605 20.8949 31.8306C21.0434 31.2087 21.716 27.7664 18.0122 27.7664C14.3085 27.7664 14.9811 31.2087 15.1383 31.8306C14.9898 31.7605 14.7802 31.7342 14.6055 32.032C14.3347 32.4875 14.9199 33.7313 15.4091 33.635C15.7148 35.0277 16.1341 35.124 16.1341 35.124C16.239 36.035 16.0555 36.6481 16.0555 36.6481L15.7673 36.4729C15.7673 36.4729 15.5052 37.016 15.0335 37.4014C14.5618 37.7868 13.4611 38.1809 12.081 39.0831C11.6791 39.3459 11.3734 39.6087 11.1463 39.9065C11.1375 39.924 12.7798 42.9634 18.021 42.9546Z" fill="url(#paint4_linear_0_112)"/>
<path d="M52.5955 28.8175L31.2201 28.8438C30.8183 28.8438 30.4951 28.5197 30.4951 28.1168V27.9941C30.4951 27.5912 30.8183 27.2671 31.2201 27.2671L52.5955 27.2408C52.9973 27.2408 53.3205 27.5649 53.3205 27.9679V28.0905C53.3205 28.4934 52.9886 28.8175 52.5955 28.8175Z" fill="url(#paint5_linear_0_112)"/>
<path d="M44.7337 32.8992L31.2201 32.9167C30.8183 32.9167 30.4951 32.5926 30.4951 32.1897V32.067C30.4951 31.6641 30.8183 31.34 31.2201 31.34L44.7337 31.3225C45.1355 31.3225 45.4587 31.6466 45.4587 32.0495V32.1722C45.4587 32.5751 45.1355 32.8992 44.7337 32.8992Z" fill="url(#paint6_linear_0_112)"/>
<path opacity="0.6" d="M59.9679 37.7518L31.2287 37.7868C30.8269 37.7868 30.5037 37.4628 30.5037 37.0598V36.9372C30.5037 36.5343 30.8269 36.2102 31.2287 36.2102L59.9679 36.1752C60.3697 36.1752 60.6929 36.4993 60.6929 36.9022V37.0248C60.6842 37.4277 60.361 37.7518 59.9679 37.7518Z" fill="url(#paint7_linear_0_112)"/>
<path opacity="0.6" d="M59.3477 51.3896L11.4082 51.4422C10.9977 51.4422 10.657 51.1093 10.657 50.6889V50.6188C10.657 50.2071 10.9889 49.8655 11.4082 49.8655L59.3477 49.813C59.7582 49.813 60.0989 50.1458 60.0989 50.5663V50.6363C60.0989 51.0568 59.7582 51.3896 59.3477 51.3896Z" fill="url(#paint8_linear_0_112)"/>
<path opacity="0.6" d="M59.9679 42.5167L31.2287 42.5517C30.8269 42.5517 30.5037 42.2277 30.5037 41.8247V41.7021C30.5037 41.2992 30.8269 40.9751 31.2287 40.9751L59.9679 40.9401C60.3697 40.9401 60.6929 41.2642 60.6929 41.6671V41.7897C60.6929 42.1926 60.3697 42.5167 59.9679 42.5167Z" fill="url(#paint9_linear_0_112)"/>
</g>
<defs>
<linearGradient id="paint0_linear_0_112" x1="-9.78629" y1="36.7091" x2="80.5018" y2="65.9658" gradientUnits="userSpaceOnUse">
<stop stop-color="#6CBCFC"/>
<stop offset="0.1713" stop-color="#5EABFC"/>
<stop offset="0.4084" stop-color="#509AFC"/>
<stop offset="0.6698" stop-color="#4890FC"/>
<stop offset="1" stop-color="#458DFC"/>
</linearGradient>
<linearGradient id="paint1_linear_0_112" x1="-5.50496" y1="-22.5814" x2="58.8037" y2="8.30389" gradientUnits="userSpaceOnUse">
<stop stop-color="#CFE9FF"/>
<stop offset="1" stop-color="#A1D6FB"/>
</linearGradient>
<linearGradient id="paint2_linear_0_112" x1="14.77" y1="2.72511" x2="55.7917" y2="2.72511" gradientUnits="userSpaceOnUse">
<stop stop-color="#B0F4FF"/>
<stop offset="1" stop-color="#69DCFC"/>
</linearGradient>
<linearGradient id="paint3_linear_0_112" x1="14.8922" y1="30.8561" x2="25.2318" y2="44.1673" gradientUnits="userSpaceOnUse">
<stop stop-color="#6CBCFC"/>
<stop offset="1" stop-color="#458DFC"/>
</linearGradient>
<linearGradient id="paint4_linear_0_112" x1="13.7746" y1="31.7242" x2="24.1142" y2="45.0355" gradientUnits="userSpaceOnUse">
<stop stop-color="#B0F4FF"/>
<stop offset="0.0994384" stop-color="#A1EFFE"/>
<stop offset="0.2994" stop-color="#88E7FD"/>
<stop offset="0.5095" stop-color="#77E1FD"/>
<stop offset="0.7344" stop-color="#6CDDFC"/>
<stop offset="1" stop-color="#69DCFC"/>
</linearGradient>
<linearGradient id="paint5_linear_0_112" x1="30.4963" y1="28.0495" x2="53.3159" y2="28.0631" gradientUnits="userSpaceOnUse">
<stop stop-color="#6CBCFC"/>
<stop offset="1" stop-color="#458DFC"/>
</linearGradient>
<linearGradient id="paint6_linear_0_112" x1="30.5005" y1="32.1196" x2="45.4578" y2="32.1196" gradientUnits="userSpaceOnUse">
<stop stop-color="#6CBCFC"/>
<stop offset="1" stop-color="#458DFC"/>
</linearGradient>
<linearGradient id="paint7_linear_0_112" x1="30.5053" y1="36.9858" x2="60.688" y2="36.9858" gradientUnits="userSpaceOnUse">
<stop stop-color="#6CBCFC"/>
<stop offset="1" stop-color="#458DFC"/>
</linearGradient>
<linearGradient id="paint8_linear_0_112" x1="10.6566" y1="50.6322" x2="60.0965" y2="50.6322" gradientUnits="userSpaceOnUse">
<stop stop-color="#6CBCFC"/>
<stop offset="1" stop-color="#458DFC"/>
</linearGradient>
<linearGradient id="paint9_linear_0_112" x1="30.5101" y1="41.7496" x2="60.6929" y2="41.7496" gradientUnits="userSpaceOnUse">
<stop stop-color="#6CBCFC"/>
<stop offset="1" stop-color="#458DFC"/>
</linearGradient>
<clipPath id="clip0_0_112">
<rect width="70.6687" height="100.362" fill="white"/>
</clipPath>
</defs>
</svg>
