<svg width="68" height="92" viewBox="0 0 68 92" fill="none" xmlns="http://www.w3.org/2000/svg">
<g clip-path="url(#clip0_0_97)">
<path d="M67.1594 28.4255L66.9513 71.1496L66.9167 79.4132C66.882 85.9795 60.5701 91.2772 52.8016 91.2429L13.9937 91.0714C6.24257 91.02 -0.0346599 85.6709 2.09457e-05 79.0875L0.242787 28.0998C0.260127 22.785 4.42183 18.2931 10.1095 16.8016L10.1268 14.0584V12.6526L57.4141 12.8755L57.3968 17.0244C63.0671 18.5846 67.1768 23.0936 67.1594 28.4255Z" fill="url(#paint0_linear_0_97)"/>
<path d="M60.9342 1.90304V2.28022L60.8995 6.73778L60.8648 11.1096V11.6411C60.8648 12.464 60.1712 13.1327 59.3389 13.1327H58.9747L56.6858 13.1155L54.1714 13.0984L51.8825 13.0812L49.3682 13.0641L47.0445 13.0298L44.5302 13.0127L42.2412 12.9955L39.7095 12.9784L37.4033 12.9612L34.8889 12.9441L32.6 12.9098L30.0856 12.8927L27.7967 12.8755L25.265 12.8584L22.9587 12.8412L20.4617 12.8241L18.1727 12.8069L15.6584 12.7898L13.3521 12.7726L10.8377 12.7555L8.53146 12.7384H8.16731C7.33497 12.7384 6.65869 12.0526 6.65869 11.2296V11.2125V10.8353L6.72805 2.02305V1.49157C6.72805 0.668635 7.42167 0 8.27135 0H8.6355L13.4561 0.034289L18.2768 0.0685779L20.583 0.0857224L23.0974 0.102867L25.3863 0.120011L30.1896 0.171445L32.704 0.188589L34.9929 0.205734L37.5073 0.222878L39.7962 0.240023L42.3106 0.257167L44.5995 0.274312L47.1139 0.291456L49.4028 0.308601L51.9519 0.34289L54.2408 0.360034L56.7552 0.377179L59.0614 0.394323H59.4256C60.2753 0.411468 60.9342 1.0801 60.9342 1.90304Z" fill="url(#paint1_linear_0_97)"/>
<path d="M60.9342 2.29738L60.8995 6.73781L60.8648 11.1097L58.8013 11.0925L56.0616 11.0754L53.5472 11.0582H50.7901L48.2757 11.0411L45.5359 11.0239L43.0216 11.0068H40.2644L37.7501 10.9896L34.9929 10.9725L32.4959 10.9553H29.7388L27.2244 10.9382L24.4673 10.9211L21.9529 10.9039H19.2132L16.6988 10.8868L13.9417 10.8696L11.4273 10.8525H8.68752L6.65869 10.8353L6.72805 2.02307L11.5487 2.04022L16.8028 2.0745L19.3172 2.09165L22.0743 2.10879H24.5887L29.8428 2.14308L32.6 2.16023H35.1143L37.8715 2.17737L40.3685 2.19452L43.1256 2.21166H45.64L48.3971 2.22881L50.8941 2.24595L53.6512 2.26309H56.1656L58.9227 2.28024L60.9342 2.29738Z" fill="url(#paint2_linear_0_97)"/>
<path d="M67.1086 37.4463L0.191895 37.1333L0.0516226 66.4675L66.9683 66.7805L67.1086 37.4463Z" fill="#F7F9FC"/>
<path d="M67.1204 37.4462L0.203735 37.1333L0.178493 42.4138L67.0952 42.7267L67.1204 37.4462Z" fill="#FBFCF7"/>
<path d="M26.2881 48.9281L21.9704 48.9109L21.9877 44.6248L16.04 44.6077L16.0226 48.8766L11.7048 48.8595L11.6702 54.7229L15.9879 54.7401L15.9706 59.0262L21.9184 59.0433L21.9357 54.7743L26.2535 54.7915L26.2881 48.9281Z" fill="url(#paint3_linear_0_97)"/>
<path d="M55.6281 50.3511L34.23 50.2482C33.6578 50.2482 33.1896 49.7853 33.1896 49.2195V48.7395C33.1896 48.1737 33.6578 47.7108 34.23 47.7108L55.6281 47.8137C56.2003 47.8137 56.6685 48.2766 56.6685 48.8424V49.3224C56.6685 49.8882 56.2003 50.3511 55.6281 50.3511Z" fill="url(#paint4_linear_0_97)"/>
<path opacity="0.5" d="M55.6107 56.6431L34.2127 56.5402C33.6404 56.5402 33.1722 56.0773 33.1722 55.5115V55.0315C33.1722 54.4657 33.6404 54.0028 34.2127 54.0028L55.6107 54.1057C56.183 54.1057 56.6512 54.5686 56.6512 55.1343V55.6144C56.6512 56.1802 56.183 56.6431 55.6107 56.6431Z" fill="url(#paint5_linear_0_97)"/>
<path opacity="0.08" d="M6.65869 1.903V2.28018L6.69337 6.73775L6.72805 11.0924V11.6239C6.72805 12.4469 7.42167 13.1155 8.25401 13.1155H8.61816L10.9244 13.0984L13.4388 13.0812L15.7277 13.0641L18.2421 13.0469L20.531 13.0298L23.0454 13.0126L25.3343 12.9955L27.8487 12.9783L30.155 12.9612L32.6693 12.944L34.9583 12.9269L37.4726 12.9098L39.7616 12.8926L42.2759 12.8755L44.5822 12.8583L47.0966 12.8412L49.3855 12.824L51.8998 12.8069L54.1888 12.7897L56.7031 12.7726L59.0094 12.7555H59.3736C60.2059 12.7555 60.8822 12.0697 60.8822 11.2467V11.2296V10.8524C34.0566 12.0011 8.16731 0.394287 8.16731 0.394287C7.33497 0.411432 6.65869 1.08007 6.65869 1.903Z" fill="#1A6FB5"/>
</g>
<defs>
<linearGradient id="paint0_linear_0_97" x1="2.05909e-05" y1="12.1657" x2="61.1153" y2="97.4788" gradientUnits="userSpaceOnUse">
<stop stop-color="#6CBCFC"/>
<stop offset="1" stop-color="#458DFC"/>
</linearGradient>
<linearGradient id="paint1_linear_0_97" x1="-683.924" y1="-42.8638" x2="-30.0427" y2="3.20071" gradientUnits="userSpaceOnUse">
<stop stop-color="#B0F4FF"/>
<stop offset="0.0525488" stop-color="#A9F2FF"/>
<stop offset="0.2879" stop-color="#8DE8FE"/>
<stop offset="0.5247" stop-color="#79E1FD"/>
<stop offset="0.7618" stop-color="#6DDDFC"/>
<stop offset="1" stop-color="#69DCFC"/>
</linearGradient>
<linearGradient id="paint2_linear_0_97" x1="6.66618" y1="6.56213" x2="60.9365" y2="6.56213" gradientUnits="userSpaceOnUse">
<stop stop-color="#B0F4FF"/>
<stop offset="0.0525488" stop-color="#A9F2FF"/>
<stop offset="0.2879" stop-color="#8DE8FE"/>
<stop offset="0.5247" stop-color="#79E1FD"/>
<stop offset="0.7618" stop-color="#6DDDFC"/>
<stop offset="1" stop-color="#69DCFC"/>
</linearGradient>
<linearGradient id="paint3_linear_0_97" x1="23.8618" y1="46.2605" x2="13.8092" y2="57.9852" gradientUnits="userSpaceOnUse">
<stop stop-color="#6CBCFC"/>
<stop offset="1" stop-color="#458DFC"/>
</linearGradient>
<linearGradient id="paint4_linear_0_97" x1="56.8749" y1="49.0254" x2="31.3627" y2="49.0254" gradientUnits="userSpaceOnUse">
<stop stop-color="#6CBCFC"/>
<stop offset="1" stop-color="#458DFC"/>
</linearGradient>
<linearGradient id="paint5_linear_0_97" x1="33.1706" y1="55.317" x2="56.6515" y2="55.317" gradientUnits="userSpaceOnUse">
<stop stop-color="#6CBCFC"/>
<stop offset="1" stop-color="#458DFC"/>
</linearGradient>
<clipPath id="clip0_0_97">
<rect width="67.1594" height="91.2429" fill="white"/>
</clipPath>
</defs>
</svg>
