<svg width="85" height="75" viewBox="0 0 85 75" fill="none" xmlns="http://www.w3.org/2000/svg">
<g clip-path="url(#clip0_0_155)">
<path d="M70.0367 14.7614H13.9686V74.9378H70.0367V14.7614Z" fill="url(#paint0_linear_0_155)"/>
<path d="M13.7367 14.7613C13.8044 14.7613 13.872 14.7903 13.9687 14.8193C13.9687 34.8395 13.9687 54.8596 13.9687 74.9088C9.62826 75.2471 5.9645 74.1548 3.05476 71.3513C0.995714 69.36 2.33464e-05 67.0206 2.33464e-05 64.3718C2.33464e-05 54.995 2.33464e-05 45.6277 2.33464e-05 36.2508C2.33464e-05 32.6741 -0.00964355 29.0973 -0.00964355 25.5206C-0.00964355 21.1995 2.32008 18.0577 6.60252 15.931C8.80657 14.8483 11.2523 14.684 13.7367 14.7613Z" fill="url(#paint1_linear_0_155)"/>
<path d="M60.2441 14.7517C62.7478 14.7517 62.9992 14.7517 65.4932 14.7517C65.4932 34.8395 65.4932 54.8597 65.4932 74.9185C48.4698 74.9185 35.5935 74.9185 18.5121 74.9185C18.5121 54.8693 18.5121 34.8492 18.5121 14.771C21.0061 14.771 21.5475 14.771 24.0899 14.771C24.0899 14.5197 24.0899 14.3264 24.0899 14.1427C24.0899 11.987 24.0996 9.82158 24.0802 7.66586C24.0609 6.15782 24.4669 4.84313 25.6463 3.81843C26.4776 3.10308 27.4346 2.73574 28.5173 2.73574C31.8717 2.72607 35.2165 2.72607 38.5709 2.72607C44.2067 2.72607 49.8522 2.73574 55.488 2.72607C56.967 2.72607 58.1947 3.20942 59.1614 4.33078C59.9348 5.2298 60.2248 6.28349 60.2248 7.46285C60.2151 9.73458 60.2248 12.0063 60.2248 14.278C60.2151 14.4037 60.2248 14.5487 60.2441 14.7517ZM30.1414 14.7517C30.3734 14.7517 30.5474 14.7517 30.7214 14.7517C33.3894 14.7517 36.0672 14.7517 38.7352 14.7517C43.7234 14.7517 48.7211 14.7517 53.7093 14.7614C54.1056 14.7614 54.1926 14.6357 54.1926 14.2587C54.1733 12.567 54.1926 10.8753 54.1926 9.18356C54.1926 9.04823 54.1733 8.91289 54.1539 8.76789C46.1304 8.76789 38.1552 8.76789 30.1414 8.76789C30.1414 10.7593 30.1414 12.712 30.1414 14.7517Z" fill="#E7E7E7"/>
<mask id="mask0_0_155" style="mask-type:alpha" maskUnits="userSpaceOnUse" x="18" y="2" width="48" height="73">
<path d="M60.2441 14.7517C62.7478 14.7517 62.9992 14.7517 65.4932 14.7517C65.4932 34.8395 65.4932 54.8597 65.4932 74.9185C48.4698 74.9185 35.5935 74.9185 18.5121 74.9185C18.5121 54.8693 18.5121 34.8492 18.5121 14.771C21.0061 14.771 21.5475 14.771 24.0899 14.771C24.0899 14.5197 24.0899 14.3264 24.0899 14.1427C24.0899 11.987 24.0996 9.82158 24.0802 7.66586C24.0609 6.15782 24.4669 4.84313 25.6463 3.81843C26.4776 3.10308 27.4346 2.73574 28.5173 2.73574C31.8717 2.72607 35.2165 2.72607 38.5709 2.72607C44.2067 2.72607 49.8522 2.73574 55.488 2.72607C56.967 2.72607 58.1947 3.20942 59.1614 4.33078C59.9348 5.2298 60.2248 6.28349 60.2248 7.46285C60.2151 9.73458 60.2248 12.0063 60.2248 14.278C60.2151 14.4037 60.2248 14.5487 60.2441 14.7517ZM30.1414 14.7517C30.3734 14.7517 30.5474 14.7517 30.7214 14.7517C33.3894 14.7517 36.0672 14.7517 38.7352 14.7517C43.7234 14.7517 48.7211 14.7517 53.7093 14.7614C54.1056 14.7614 54.1926 14.6357 54.1926 14.2587C54.1733 12.567 54.1926 10.8753 54.1926 9.18356C54.1926 9.04823 54.1733 8.91289 54.1539 8.76789C46.1304 8.76789 38.1552 8.76789 30.1414 8.76789C30.1414 10.7593 30.1414 12.712 30.1414 14.7517Z" fill="#F7F9FC"/>
</mask>
<g mask="url(#mask0_0_155)">
<path d="M61.2083 0H22.125V14.771H61.2083V0Z" fill="url(#paint2_linear_0_155)"/>
</g>
<path d="M84.2858 25.3659C84.2858 21.3832 82.1107 18.4154 78.244 16.2597C75.8659 14.9353 73.1688 14.684 70.4041 14.742C69.9788 14.7517 70.0368 14.974 70.0368 15.206C70.0368 22.1662 70.0368 29.1167 70.0368 36.0768C70.0368 48.3055 70.0368 60.5244 70.0271 72.7531C70.0271 73.4588 70.0271 74.1644 70.0271 74.9281C71.7671 74.9861 73.4202 74.9958 75.0442 74.6091C80.535 73.3138 84.2761 69.2247 84.2761 64.4009C84.2955 51.3989 84.2858 38.3776 84.2858 25.3659Z" fill="url(#paint3_linear_0_155)"/>
<path d="M46.5848 49.2915C46.5848 50.5386 46.5848 51.7179 46.5848 52.9069C46.5848 54.2506 46.5848 55.5943 46.5848 56.9284C46.5848 57.7307 46.1787 58.1561 45.3861 58.1561C43.2013 58.1657 41.0166 58.1657 38.8319 58.1561C38.1069 58.1561 37.7009 57.7017 37.7009 56.938C37.7009 54.5406 37.7009 52.1433 37.7009 49.7459C37.7009 49.6105 37.7009 49.4655 37.7009 49.2915C37.5172 49.2915 37.3819 49.2915 37.2369 49.2915C34.8781 49.2915 32.5097 49.2915 30.151 49.2915C29.2133 49.2915 28.8267 48.9145 28.8267 47.9768C28.8267 45.8984 28.8267 43.8201 28.8267 41.7417C28.8267 40.7943 29.2037 40.4173 30.1414 40.4173C32.4904 40.4173 34.8395 40.4173 37.1885 40.4173C37.3432 40.4173 37.4882 40.4173 37.6912 40.4173C37.6912 40.2626 37.6912 40.137 37.6912 40.0113C37.6912 37.6139 37.6912 35.2165 37.6912 32.8191C37.6912 31.9298 38.0876 31.5431 38.9769 31.5431C41.0553 31.5431 43.1337 31.5431 45.2121 31.5431C46.1884 31.5431 46.5654 31.9104 46.5654 32.9061C46.5751 35.2842 46.5654 37.6526 46.5654 40.0306C46.5654 40.1466 46.5654 40.2626 46.5654 40.427C46.7201 40.427 46.8554 40.427 46.9811 40.427C49.3785 40.427 51.7759 40.427 54.1733 40.4366C55.053 40.4366 55.43 40.8233 55.43 41.703C55.43 43.7911 55.43 45.8791 55.43 47.9672C55.43 48.9242 55.0626 49.2915 54.1249 49.2915C51.7372 49.2915 49.3495 49.2915 46.9714 49.3012C46.8748 49.2915 46.7588 49.2915 46.5848 49.2915Z" fill="url(#paint4_linear_0_155)"/>
</g>
<defs>
<linearGradient id="paint0_linear_0_155" x1="13.97" y1="44.846" x2="70.034" y2="44.846" gradientUnits="userSpaceOnUse">
<stop stop-color="#B0F4FF"/>
<stop offset="1" stop-color="#69DCFC"/>
</linearGradient>
<linearGradient id="paint1_linear_0_155" x1="2.33466e-05" y1="44.8554" x2="13.9701" y2="44.8554" gradientUnits="userSpaceOnUse">
<stop stop-color="#6CBCFC"/>
<stop offset="1" stop-color="#458DFC"/>
</linearGradient>
<linearGradient id="paint2_linear_0_155" x1="22.1209" y1="7.38395" x2="61.2066" y2="7.38395" gradientUnits="userSpaceOnUse">
<stop stop-color="#6CBCFC"/>
<stop offset="1" stop-color="#458DFC"/>
</linearGradient>
<linearGradient id="paint3_linear_0_155" x1="70.0295" y1="44.8495" x2="84.2866" y2="44.8495" gradientUnits="userSpaceOnUse">
<stop stop-color="#6CBCFC"/>
<stop offset="1" stop-color="#458DFC"/>
</linearGradient>
<linearGradient id="paint4_linear_0_155" x1="28.8326" y1="44.8592" x2="55.4493" y2="44.8592" gradientUnits="userSpaceOnUse">
<stop stop-color="#6CBCFC"/>
<stop offset="1" stop-color="#458DFC"/>
</linearGradient>
<clipPath id="clip0_0_155">
<rect width="84.2857" height="74.9668" fill="white"/>
</clipPath>
</defs>
</svg>
