<svg width="71" height="101" viewBox="0 0 71 101" fill="none" xmlns="http://www.w3.org/2000/svg">
<g clip-path="url(#clip0_0_76)">
<path d="M68.4502 0H2.45452C1.09722 0 0 1.08625 0 2.42999V97.9399C0 99.2836 1.09722 100.37 2.45452 100.37H68.4502C69.8075 100.37 70.9047 99.2836 70.9047 97.9399V2.42999C70.8966 1.08625 69.7994 0 68.4502 0Z" fill="url(#paint0_linear_0_76)"/>
<path d="M64.1183 4.32898H6.77841C5.46175 4.32898 4.38892 5.39109 4.38892 6.70265V85.6693C4.38892 86.9808 5.46175 88.0349 6.77841 88.0349H64.1183C65.4431 88.0349 66.5078 86.9728 66.5078 85.6693V6.70265C66.5078 5.39109 65.4431 4.32898 64.1183 4.32898Z" fill="#E7E7E7"/>
<path d="M47.1722 41.873H23.7324C22.6596 41.873 21.7899 41.0121 21.7899 39.95V16.7363C21.7899 15.6742 22.6596 14.8132 23.7324 14.8132H47.1722C48.2451 14.8132 49.1147 15.6742 49.1147 16.7363V39.9419C49.1147 41.004 48.2451 41.873 47.1722 41.873Z" fill="url(#paint1_linear_0_76)"/>
<path d="M35.4524 97.771C37.4454 97.771 39.061 96.1715 39.061 94.1984C39.061 92.2253 37.4454 90.6259 35.4524 90.6259C33.4594 90.6259 31.8438 92.2253 31.8438 94.1984C31.8438 96.1715 33.4594 97.771 35.4524 97.771Z" fill="#E7E7E7"/>
<path d="M55.8769 53.8943H15.0197C13.9875 53.8943 13.1422 53.0575 13.1422 52.0356C13.1422 51.0137 13.9875 50.1769 15.0197 50.1769H55.8687C56.9009 50.1769 57.7462 51.0137 57.7462 52.0356C57.7462 53.0575 56.909 53.8943 55.8769 53.8943Z" fill="url(#paint2_linear_0_76)"/>
<path opacity="0.6" d="M48.9604 64.1936H14.337C13.6787 64.1936 13.1504 63.6626 13.1504 63.0188V62.8901C13.1504 62.2383 13.6868 61.7153 14.337 61.7153H48.9604C49.6187 61.7153 50.147 62.2464 50.147 62.8901V63.0188C50.1551 63.6626 49.6187 64.1936 48.9604 64.1936Z" fill="url(#paint3_linear_0_76)"/>
<path opacity="0.3" d="M42.3689 70.7353H14.2232C13.6299 70.7353 13.1422 70.2525 13.1422 69.6652V69.3111C13.1422 68.7238 13.6299 68.241 14.2232 68.241H42.3607C42.9541 68.241 43.4417 68.7238 43.4417 69.3111V69.6652C43.4417 70.2525 42.9541 70.7353 42.3689 70.7353Z" fill="url(#paint4_linear_0_76)"/>
<path opacity="0.6" d="M45.9125 76.7942H14.2882C13.6624 76.7942 13.1504 76.2873 13.1504 75.6677V75.4424C13.1504 74.8228 13.6624 74.3159 14.2882 74.3159H45.9125C46.5384 74.3159 47.0504 74.8228 47.0504 75.4424V75.6677C47.0504 76.2792 46.5384 76.7942 45.9125 76.7942Z" fill="url(#paint5_linear_0_76)"/>
<path d="M35.5227 27.595C37.8697 27.595 39.7721 25.6864 39.7721 23.3319C39.7721 20.9773 37.8697 19.0687 35.5227 19.0687C33.1758 19.0687 31.2734 20.9773 31.2734 23.3319C31.2734 25.6864 33.1669 27.595 35.5227 27.595ZM35.5227 29.7266C32.6869 29.7266 27.024 31.1536 27.024 33.9897V35.06C27.024 35.6486 27.5041 36.1302 28.0908 36.1302H42.9724C43.5592 36.1302 44.0392 35.6486 44.0392 35.06V33.9897C44.0214 31.1625 38.3586 29.7266 35.5227 29.7266Z" fill="#E7E7E7"/>
</g>
<defs>
<linearGradient id="paint0_linear_0_76" x1="4.29539" y1="47.5717" x2="70.9548" y2="53.2706" gradientUnits="userSpaceOnUse">
<stop stop-color="#6CBCFC"/>
<stop offset="1" stop-color="#458DFC"/>
</linearGradient>
<linearGradient id="paint1_linear_0_76" x1="19.671" y1="20.3812" x2="51.0976" y2="36.5555" gradientUnits="userSpaceOnUse">
<stop stop-color="#B0F4FF"/>
<stop offset="0.0856277" stop-color="#A3F0FE"/>
<stop offset="0.2972" stop-color="#8AE7FD"/>
<stop offset="0.5161" stop-color="#77E1FD"/>
<stop offset="0.7451" stop-color="#6DDDFC"/>
<stop offset="1" stop-color="#69DCFC"/>
</linearGradient>
<linearGradient id="paint2_linear_0_76" x1="57.7501" y1="52.0371" x2="13.1499" y2="52.0371" gradientUnits="userSpaceOnUse">
<stop stop-color="#6CBCFC"/>
<stop offset="1" stop-color="#458DFC"/>
</linearGradient>
<linearGradient id="paint3_linear_0_76" x1="50.1528" y1="62.9509" x2="13.1499" y2="62.9509" gradientUnits="userSpaceOnUse">
<stop stop-color="#6CBCFC"/>
<stop offset="1" stop-color="#458DFC"/>
</linearGradient>
<linearGradient id="paint4_linear_0_76" x1="43.4425" y1="69.4926" x2="13.1499" y2="69.4926" gradientUnits="userSpaceOnUse">
<stop stop-color="#6CBCFC"/>
<stop offset="1" stop-color="#458DFC"/>
</linearGradient>
<linearGradient id="paint5_linear_0_76" x1="47.0497" y1="75.5486" x2="13.1499" y2="75.5486" gradientUnits="userSpaceOnUse">
<stop stop-color="#6CBCFC"/>
<stop offset="1" stop-color="#458DFC"/>
</linearGradient>
<clipPath id="clip0_0_76">
<rect width="70.8966" height="100.362" fill="white"/>
</clipPath>
</defs>
</svg>
