<svg width="76" height="103" viewBox="0 0 76 103" fill="none" xmlns="http://www.w3.org/2000/svg">
<path d="M75.373 4.63904V97.6237C75.373 100.19 73.2817 102.263 70.6932 102.263H4.67974C2.09131 102.246 0 100.173 0 97.6237V4.63904C0 2.07312 2.09131 0 4.67974 0H70.7104C73.2817 0 75.373 2.07312 75.373 4.63904Z" fill="url(#paint0_linear_0_132)"/>
<path d="M70.5715 8.55273V93.693C70.5715 96.0424 68.7339 97.9407 66.4595 97.9407H8.45488C6.18049 97.9251 4.3429 96.0269 4.3429 93.693V8.55273C4.3429 6.20328 6.18049 4.30505 8.45488 4.30505H66.4746C68.7339 4.30505 70.5715 6.20328 70.5715 8.55273Z" fill="url(#paint1_linear_0_132)"/>
<path d="M29.1752 19.6437V23.8749C29.1752 24.1808 28.9352 24.4187 28.6266 24.4187H23.3983C23.0898 24.4187 22.8498 24.6566 22.8498 24.9625V30.1453C22.8498 30.4511 22.6098 30.689 22.3012 30.689H18.0329C17.7244 30.689 17.4844 30.4511 17.4844 30.1453V24.9625C17.4844 24.6566 17.2444 24.4187 16.9358 24.4187H11.7247C11.4161 24.4187 11.1761 24.1808 11.1761 23.8749V19.6437C11.1761 19.3378 11.4161 19.0999 11.7247 19.0999H16.953C17.2615 19.0999 17.5015 18.862 17.5015 18.5562V13.3734C17.5015 13.0675 17.7415 12.8296 18.0501 12.8296H22.3184C22.6269 12.8296 22.8669 13.0675 22.8669 13.3734V18.5562C22.8669 18.862 23.1069 19.0999 23.4155 19.0999H28.6266C28.9352 19.0999 29.1752 19.3378 29.1752 19.6437Z" fill="url(#paint2_linear_0_132)"/>
<path opacity="0.5" d="M63.5965 42.7029H11.7765C11.4337 42.7029 11.1594 42.431 11.1594 42.0912V40.137C11.1594 39.7972 11.4337 39.5253 11.7765 39.5253H63.5965C63.9394 39.5253 64.2136 39.7972 64.2136 40.137V42.0912C64.1965 42.431 63.9394 42.7029 63.5965 42.7029Z" fill="url(#paint3_linear_0_132)"/>
<path d="M63.5966 18.3523H37.8837C37.5409 18.3523 37.2666 18.0804 37.2666 17.7406V15.8034C37.2666 15.4635 37.5409 15.1917 37.8837 15.1917H63.5966C63.9394 15.1917 64.2137 15.4635 64.2137 15.8034V17.7576C64.1965 18.0804 63.9394 18.3523 63.5966 18.3523Z" fill="url(#paint4_linear_0_132)"/>
<path opacity="0.5" d="M55.9856 26.6107H37.8837C37.5409 26.6107 37.2666 26.3389 37.2666 25.999V24.0448C37.2666 23.705 37.5409 23.4331 37.8837 23.4331H55.9856C56.3284 23.4331 56.6027 23.705 56.6027 24.0448V25.999C56.5855 26.3389 56.3284 26.6107 55.9856 26.6107Z" fill="url(#paint5_linear_0_132)"/>
<path opacity="0.5" d="M63.5965 51.981H11.7765C11.4337 51.981 11.1594 51.7091 11.1594 51.3693V49.4151C11.1594 49.0752 11.4337 48.8033 11.7765 48.8033H63.5965C63.9394 48.8033 64.2136 49.0752 64.2136 49.4151V51.3693C64.1965 51.7091 63.9394 51.981 63.5965 51.981Z" fill="url(#paint6_linear_0_132)"/>
<path opacity="0.5" d="M63.5965 61.2591H11.7765C11.4337 61.2591 11.1594 60.9872 11.1594 60.6473V58.6932C11.1594 58.3533 11.4337 58.0814 11.7765 58.0814H63.5965C63.9394 58.0814 64.2136 58.3533 64.2136 58.6932V60.6643C64.1965 60.9872 63.9394 61.2591 63.5965 61.2591Z" fill="url(#paint7_linear_0_132)"/>
<path opacity="0.5" d="M63.5965 70.5542H11.7765C11.4337 70.5542 11.1594 70.2824 11.1594 69.9425V67.9883C11.1594 67.6485 11.4337 67.3766 11.7765 67.3766H63.5965C63.9394 67.3766 64.2136 67.6485 64.2136 67.9883V69.9425C64.1965 70.2824 63.9394 70.5542 63.5965 70.5542Z" fill="url(#paint8_linear_0_132)"/>
<path opacity="0.5" d="M63.5965 79.8322H11.7765C11.4337 79.8322 11.1594 79.5603 11.1594 79.2205V77.2663C11.1594 76.9264 11.4337 76.6545 11.7765 76.6545H63.5965C63.9394 76.6545 64.2136 76.9264 64.2136 77.2663V79.2205C64.1965 79.5603 63.9394 79.8322 63.5965 79.8322Z" fill="url(#paint9_linear_0_132)"/>
<path opacity="0.5" d="M63.5965 89.1104H11.7765C11.4337 89.1104 11.1594 88.8385 11.1594 88.4986V86.5445C11.1594 86.2046 11.4337 85.9327 11.7765 85.9327H63.5965C63.9394 85.9327 64.2136 86.2046 64.2136 86.5445V88.4986C64.1965 88.8385 63.9394 89.1104 63.5965 89.1104Z" fill="url(#paint10_linear_0_132)"/>
<path opacity="0.1" d="M75.373 4.63904V97.6237C75.373 100.19 73.2817 102.263 70.6932 102.263H4.67974C2.09131 102.246 0 100.173 0 97.6237V96.0094C40.2663 79.5264 59.0196 16.3131 63.2536 0H70.6932C73.2817 0 75.373 2.07312 75.373 4.63904Z" fill="#1A6FB5" fill-opacity="0.4"/>
<defs>
<linearGradient id="paint0_linear_0_132" x1="103.143" y1="135.61" x2="-5.31203" y2="-6.83487" gradientUnits="userSpaceOnUse">
<stop offset="0.3061" stop-color="#5BA7FC"/>
<stop offset="1" stop-color="#69B8FC"/>
</linearGradient>
<linearGradient id="paint1_linear_0_132" x1="9.36334" y1="7.58298" x2="62.2757" y2="84.416" gradientUnits="userSpaceOnUse">
<stop offset="0.3061" stop-color="white"/>
<stop offset="1" stop-color="white"/>
</linearGradient>
<linearGradient id="paint2_linear_0_132" x1="10.8568" y1="10.2246" x2="26.9364" y2="36.7184" gradientUnits="userSpaceOnUse">
<stop stop-color="#B0F4FF"/>
<stop offset="0.368525" stop-color="#80E4FD"/>
<stop offset="1" stop-color="#6CDDFC"/>
</linearGradient>
<linearGradient id="paint3_linear_0_132" x1="11.1727" y1="41.1213" x2="64.2043" y2="41.1213" gradientUnits="userSpaceOnUse">
<stop stop-color="#6CBCFC"/>
<stop offset="1" stop-color="#458DFC"/>
</linearGradient>
<linearGradient id="paint4_linear_0_132" x1="37.2671" y1="16.7731" x2="64.2044" y2="16.7731" gradientUnits="userSpaceOnUse">
<stop stop-color="#6CBCFC"/>
<stop offset="1" stop-color="#458DFC"/>
</linearGradient>
<linearGradient id="paint5_linear_0_132" x1="37.2671" y1="25.0358" x2="56.5936" y2="25.0358" gradientUnits="userSpaceOnUse">
<stop stop-color="#6CBCFC"/>
<stop offset="1" stop-color="#458DFC"/>
</linearGradient>
<linearGradient id="paint6_linear_0_132" x1="11.1727" y1="50.4036" x2="64.2043" y2="50.4036" gradientUnits="userSpaceOnUse">
<stop stop-color="#6CBCFC"/>
<stop offset="1" stop-color="#458DFC"/>
</linearGradient>
<linearGradient id="paint7_linear_0_132" x1="11.1727" y1="59.6859" x2="64.2043" y2="59.6859" gradientUnits="userSpaceOnUse">
<stop stop-color="#6CBCFC"/>
<stop offset="1" stop-color="#458DFC"/>
</linearGradient>
<linearGradient id="paint8_linear_0_132" x1="11.1727" y1="68.9683" x2="64.2043" y2="68.9683" gradientUnits="userSpaceOnUse">
<stop stop-color="#6CBCFC"/>
<stop offset="1" stop-color="#458DFC"/>
</linearGradient>
<linearGradient id="paint9_linear_0_132" x1="11.1727" y1="78.2504" x2="64.2043" y2="78.2504" gradientUnits="userSpaceOnUse">
<stop stop-color="#6CBCFC"/>
<stop offset="1" stop-color="#458DFC"/>
</linearGradient>
<linearGradient id="paint10_linear_0_132" x1="11.1727" y1="87.5328" x2="64.2043" y2="87.5328" gradientUnits="userSpaceOnUse">
<stop stop-color="#6CBCFC"/>
<stop offset="1" stop-color="#458DFC"/>
</linearGradient>
</defs>
</svg>
